HIERARCHY
ROOT Hips
{
  OFFSET 3.13124 94.3669 -3.18751
  CHANNELS  6 Xposition Yposition Zposition Zrotation Xrotation Yrotation
  JOINT LeftUpLeg
  {
    OFFSET 8.64259 1.95398 -2.38835
    CHANNELS 3 Zrotation Xrotation Yrotation
    JOINT LeftLeg
    {
      OFFSET 43.7702 0 0
      CHANNELS 3 Zrotation Xrotation Yrotation
      JOINT LeftFoot
      {
        OFFSET 40.6238 0 0
        CHANNELS 3 Zrotation Xrotation Yrotation
        JOINT LeftToeBase
        {
          OFFSET 12.7242 0 0
          CHANNELS 3 Zrotation Xrotation Yrotation
          End Site
          {
            OFFSET 0 0 0
          }
        }
      }
    }
  }
  JOINT RightUpLeg
  {
    OFFSET -8.2249 1.95398 -2.59336
    CHANNELS 3 Zrotation Xrotation Yrotation
    JOINT RightLeg
    {
      OFFSET 43.5653 0 0
      CHANNELS 3 Zrotation Xrotation Yrotation
      JOINT RightFoot
      {
        OFFSET 40.6238 0 0
        CHANNELS 3 Zrotation Xrotation Yrotation
        JOINT RightToeBase
        {
          OFFSET 12.7242 0 0
          CHANNELS 3 Zrotation Xrotation Yrotation
          End Site
          {
            OFFSET 0 0 0
          }
        }
      }
    }
  }
  JOINT Spine
  {
    OFFSET 0.165834 0.87714 6.61349
    CHANNELS 3 Zrotation Xrotation Yrotation
    JOINT Spine1
    {
      OFFSET 7.38962 1.71661e-005 0
      CHANNELS 3 Zrotation Xrotation Yrotation
      JOINT Spine2
      {
        OFFSET 11.9445 1.14441e-005 0
        CHANNELS 3 Zrotation Xrotation Yrotation
        JOINT Spine3
        {
          OFFSET 14.7254 4.19617e-005 0
          CHANNELS 3 Zrotation Xrotation Yrotation
          JOINT Spine4
          {
            OFFSET 10.9679 0 0
            CHANNELS 3 Zrotation Xrotation Yrotation
            JOINT RightShoulder
            {
              OFFSET 2.46616 -1.6653 3.69651
              CHANNELS 3 Zrotation Xrotation Yrotation
              JOINT RightArm
              {
                OFFSET 13.0012 0 0
                CHANNELS 3 Zrotation Xrotation Yrotation
                JOINT RightForeArm
                {
                  OFFSET 28.7848 1.52588e-005 0
                  CHANNELS 3 Zrotation Xrotation Yrotation
                  JOINT RightHand
                  {
                    OFFSET 26.5688 1.52588e-005 0
                    CHANNELS 3 Zrotation Xrotation Yrotation
                    End Site
                    {
                      OFFSET 0 0 0
                    }
                  }
                }
              }
            }
            JOINT LeftShoulder
            {
              OFFSET 2.38034 -1.29275 -3.75231
              CHANNELS 3 Zrotation Xrotation Yrotation
              JOINT LeftArm
              {
                OFFSET 16.3182 6.10352e-005 0
                CHANNELS 3 Zrotation Xrotation Yrotation
                JOINT LeftForeArm
                {
                  OFFSET 27.0901 0 0
                  CHANNELS 3 Zrotation Xrotation Yrotation
                  JOINT LeftHand
                  {
                    OFFSET 24.5451 1.52588e-005 0
                    CHANNELS 3 Zrotation Xrotation Yrotation
                    End Site
                    {
                      OFFSET 0 0 0
                    }
                  }
                }
              }
            }
            JOINT Neck
            {
              OFFSET 5.0226 -0.0266342 0
              CHANNELS 3 Zrotation Xrotation Yrotation
              JOINT Head
              {
                OFFSET 6.69363 2.86102e-005 0
                CHANNELS 3 Zrotation Xrotation Yrotation
                End Site
                {
                  OFFSET 0 0 0
                }
              }
            }
          }
        }
      }
    }
  }
}
MOTION
Frames:	9
Frame Time:	0.0333333
41.3333 90.9086 9.87054 81.4215 47.1356 88.4096 177.226 14.2746 81.9121 -55.0532 70.4903 31.8479 71.6488 5.20443 2.80214 28.7808 4.60461e-006 2.67529e-006 171.534 23.6459 67.5413 -13.752 -51.7307 -3.3123 58.1124 23.4828 15.7447 28.7808 1.55448e-005 2.75158e-005 -1.52828 6.6143 -90.3457 13.7266 -3.13623 1.67265 2.05815 -3.05957 1.80906 -20.5052 -3.49592 0.651979 -0.49253 -3.49593 0.651961 100.164 -45.1485 -85.3177 -1.53487 25.0023 9.07503 23.2515 57.3035 -33.3913 -9.80853 0.420227 -10.5308 -87.1237 -32.0804 79.3677 14.9041 -40.1253 -42.0427 1.68605 -40.7961 -2.62892 -8.0271 -0.283301 -0.681044 18.8148 3.21557 -0.99254 -4.81484 2.76751 27.3433 
43.8615 90.1648 13.1002 75.9699 56.7817 92.2899 175.689 20.7819 83.0683 -76.8891 74.5383 49.807 69.9689 2.70118 1.58286 28.7808 4.60461e-006 2.67529e-006 173.873 24.4388 66.6561 -20.8038 -36.8033 -2.10704 72.1787 16.6597 8.04998 28.7808 1.55448e-005 2.75158e-005 -1.37459 6.66024 -90.3179 13.6317 -2.88689 1.88201 1.96249 -2.80118 2.00829 -20.595 -3.31951 0.924842 -0.582373 -3.3195 0.924832 100.325 -42.1071 -85.1751 1.56504 23.9018 15.8301 27.992 53.7752 -39.6736 -11.7026 -0.0948456 -4.46526 -87.7412 -32.8304 78.4206 14.9367 -39.1657 -39.5232 1.78161 -32.1078 -2.75304 1.34495 -0.00489558 -1.99941 17.835 3.81037 4.74543 5.83664 4.01709 24.3497 
46.2692 89.7093 16.3724 66.7711 63.2505 100.782 174.043 28.5454 84.4292 -83.2811 73.4043 51.9592 64.7089 -5.79834 -3.17988 28.7808 4.60461e-006 2.67529e-006 173.933 24.217 69.0287 -19.7758 -24.7888 -1.35722 79.864 11.4651 4.44747 28.7808 1.55448e-005 2.75158e-005 -0.92879 6.74406 -90.4829 13.4424 -2.25848 1.71262 1.77214 -2.18093 1.81034 -20.7752 -2.66872 0.954206 -0.762554 -2.66872 0.954197 98.6974 -39.4668 -88.2151 4.69125 22.4618 19.2516 23.1306 48.9835 -36.0283 -14.3093 -1.25844 5.35625 -88.5159 -34.6798 77.5035 14.791 -38.0903 -36.9499 1.82574 -28.4138 -2.80699 7.07239 0.28516 0.29336 16.8602 4.64674 11.5426 15.7948 4.44409 20.4171 
48.4389 89.8184 19.4413 56.2139 68.0343 111.572 172.416 35.6151 85.3825 -78.153 68.0545 42.4125 54.4533 -14.2696 -10.1565 28.7808 4.60461e-006 2.67529e-006 176.444 26.9171 70.4258 -24.6083 -19.1777 -1.12135 82.0824 8.00253 2.79509 28.7808 1.55448e-005 2.75158e-005 -0.421304 6.89609 -90.2097 13.1023 -1.35892 1.51969 1.43111 -1.29064 1.57806 -21.1058 -1.75353 1.04384 -1.09312 -1.75352 1.04383 97.0215 -38.4315 -91.3371 5.12641 22.8176 25.9599 24.2931 40.1164 -41.6436 -9.14454 -1.91826 19.8881 -89.0651 -36.4185 76.9844 12.2054 -35.5393 -34.4408 1.83359 -27.7648 -2.81661 9.042 0.119457 -2.28821 15.7048 5.24987 13.3707 22.3515 5.70783 19.9061 
50.6284 91.0781 22.2052 43.1264 71.4157 125.638 170.864 40.6318 86.0166 -69.4385 58.3437 31.209 45.7492 -12.895 -11.0507 28.7808 4.60461e-006 2.67529e-006 176.01 25.6637 73.4621 -19.6715 -12.7472 -0.721519 77.4233 7.15494 2.81888 28.7808 1.55448e-005 2.75158e-005 -0.0336866 6.99032 -90.2069 12.8933 -0.516194 1.0123 1.2221 -0.472781 1.03325 -21.312 -0.785482 0.815746 -1.29929 -0.785488 0.815729 95.7591 -37.3852 -93.7869 4.17167 23.8707 28.111 16.8809 27.0908 -41.4169 -2.86368 -0.768097 30.2446 -91.8091 -41.674 73.812 11.163 -33.5145 -30.2181 1.82056 -28.8221 -2.80087 5.9594 -0.0159291 -3.36615 12.6411 6.25685 15.289 27.0028 7.19964 19.4915 
52.866 92.7417 24.0183 20.1659 76.8843 149.69 168.926 42.7679 84.4428 -59.9561 36.0737 20.657 40.4367 -6.98109 -7.15569 28.7808 4.60461e-006 2.67529e-006 173.673 17.7773 75.7015 -7.43616 -4.96875 -0.271424 69.7832 6.67687 3.30911 28.7808 1.55448e-005 2.75158e-005 -0.0704098 7.14509 -90.1897 12.5874 -0.475888 0.660773 0.916326 -0.445731 0.68142 -21.6186 -0.656849 0.485089 -1.60599 -0.656871 0.485076 95.1139 -37.0116 -95.0343 2.39037 25.0934 24.5186 10.9171 19.9009 -39.0932 -1.5532 -0.331941 30.3573 -94.9992 -46.7871 70.3401 9.4655 -30.901 -24.7096 1.78942 -31.4039 -2.7629 1.83231 0.0343542 -0.943945 7.91762 7.52382 15.2388 28.6166 9.10174 18.7949 
55.0155 94.0993 25.553 -27.0721 78.9154 -163.562 168.907 44.0744 80.2908 -59.2387 12.7143 16.3929 42.6019 2.88953 1.52684 28.7808 4.60461e-006 2.67529e-006 173.449 12.6201 75.3279 -3.9224 3.47527 0.1956 67.0296 5.50445 2.89352 28.7808 1.55448e-005 2.75158e-005 -0.697094 7.20257 -88.9829 12.4528 -0.794408 0.51826 0.781998 -0.77099 0.552114 -21.7549 -0.912475 0.255902 -1.74225 -0.912494 0.255884 95.1122 -37.0416 -95.0314 0.696824 26.3061 20.7795 2.03366 7.84299 -36.525 0.588101 0.246929 19.2296 -97.7254 -51.1212 67.6819 7.47894 -27.9892 -18.0392 1.75855 -34.0349 -2.6961 -3.26381 -0.13908 2.85325 2.13471 8.47625 13.0605 27.1033 10.8077 18.6782 
57.0974 95.0795 26.881 -57.0016 73.329 -134.185 170.503 45.4745 77.2089 -63.6344 0.0795622 14.1958 41.1606 4.24188 2.68845 28.7808 4.60461e-006 2.67529e-006 174.098 11.2428 75.1292 -4.12982 11.4829 0.671718 66.583 4.41853 2.34727 28.7808 1.55448e-005 2.75158e-005 -1.17376 6.94804 -87.6192 12.9253 -0.98967 0.559863 1.25457 -0.964096 0.602867 -21.2833 -1.11218 0.236538 -1.27071 -1.1122 0.236516 94.5395 -38.377 -95.8235 -1.41946 25.7214 9.03826 -3.94254 -1.97837 -21.6496 -4.69561 -0.452094 5.8953 -99.87 -54.8991 65.9111 12.8521 -27.3802 -7.55198 4.21284 49.8635 -5.28719 -58.5838 -5.13623 5.12896 -4.43312 9.1936 8.7367 23.4961 12.2389 19.2573 
59.1505 95.8204 28.0964 -66.7674 66.983 -124.377 172.559 46.312 76.3074 -70.6764 -5.61281 11.8901 38.428 -2.62657 -3.49525 28.7808 4.60461e-006 2.67529e-006 175.172 10.9274 75.5257 -4.37896 18.264 1.11864 66.1007 3.68463 1.98838 28.7808 1.55448e-005 2.75158e-005 -1.39427 6.6277 -86.3391 13.5198 -0.812897 0.520345 1.84897 -0.789212 0.55562 -20.6879 -0.931686 0.251599 -0.675293 -0.931706 0.251581 94.423 -38.8587 -95.9161 -4.47961 28.237 3.68589 0.00909494 9.34028 -21.9444 0.809688 -0.0332564 -5.77093 -98.527 -57.7917 68.6675 3.53993 -22.6798 -1.01009 1.92447 -20.8127 -2.92342 -3.57481 -0.146132 6.27976 -9.20759 9.75704 5.87592 17.5776 12.1308 17.087 
